<?xml version="1.0" standalone="no"?>
<!DOCTYPE svg PUBLIC "-//W3C//DTD SVG 1.1//EN" "http://www.w3.org/Graphics/SVG/1.1/DTD/svg11.dtd" >
<svg xmlns="http://www.w3.org/2000/svg">
<metadata>
Created by FontForge 20120731 at Thu Aug 25 14:13:40 2016
 By admin
</metadata>
<defs>
<font id="iconfont" horiz-adv-x="1024" >
  <font-face 
    font-family="iconfont"
    font-weight="500"
    font-stretch="normal"
    units-per-em="1024"
    panose-1="2 0 6 3 0 0 0 0 0 0"
    ascent="896"
    descent="-128"
    x-height="792"
    bbox="0 -213 1169 896"
    underline-thickness="50"
    underline-position="-100"
    unicode-range="U+0078-E659"
  />
<missing-glyph horiz-adv-x="374" 
d="M34 0v682h272v-682h-272zM68 34h204v614h-204v-614z" />
    <glyph glyph-name=".notdef" horiz-adv-x="374" 
d="M34 0v682h272v-682h-272zM68 34h204v614h-204v-614z" />
    <glyph glyph-name=".null" horiz-adv-x="0" 
 />
    <glyph glyph-name="nonmarkingreturn" horiz-adv-x="341" 
 />
    <glyph glyph-name="x" unicode="x" horiz-adv-x="1001" 
d="M281 543q-27 -1 -53 -1h-83q-18 0 -36.5 -6t-32.5 -18.5t-23 -32t-9 -45.5v-76h912v41q0 16 -0.5 30t-0.5 18q0 13 -5 29t-17 29.5t-31.5 22.5t-49.5 9h-133v-97h-438v97zM955 310v-52q0 -23 0.5 -52t0.5 -58t-10.5 -47.5t-26 -30t-33 -16t-31.5 -4.5q-14 -1 -29.5 -0.5
t-29.5 0.5h-32l-45 128h-439l-44 -128h-29h-34q-20 0 -45 1q-25 0 -41 9.5t-25.5 23t-13.5 29.5t-4 30v167h911zM163 247q-12 0 -21 -8.5t-9 -21.5t9 -21.5t21 -8.5q13 0 22 8.5t9 21.5t-9 21.5t-22 8.5zM316 123q-8 -26 -14 -48q-5 -19 -10.5 -37t-7.5 -25t-3 -15t1 -14.5
t9.5 -10.5t21.5 -4h37h67h81h80h64h36q23 0 34 12t2 38q-5 13 -9.5 30.5t-9.5 34.5q-5 19 -11 39h-368zM336 498v228q0 11 2.5 23t10 21.5t20.5 15.5t34 6h188q31 0 51.5 -14.5t20.5 -52.5v-227h-327z" />
    <glyph glyph-name="uniE600" unicode="&#xe600;" 
d="M927 707q-17 0 -25.5 -6.5t-8 -14t0.5 -13.5q0 -4 5 -10t5 -12v-465q1 -31 -10.5 -45.5t-37.5 -15.5q-237 12 -322 -27q-22 -11 -44 0q-82 38 -304 28q-40 1 -53.5 13t-12.5 52v460q0 6 5 12t5 10v5v6q0 1 -0.5 5t-1 5t-2.5 4t-4.5 4t-6 2.5t-8 2t-10.5 0.5h-4
q-6 1 -7 -0.5t-1 -10.5v-509q0 -16 1.5 -29.5t5.5 -23t7.5 -16.5t10.5 -11.5t10.5 -7.5t12 -4.5t11 -2t11.5 -0.5h10q52 1 105.5 2.5t112.5 -6t95 -24.5q14 -7 34 -7t34 7q83 39 307 27q13 1 18 1t16.5 2t17 5.5t13.5 11t11.5 18.5t6.5 28t3 39v500q0 10 -1.5 10.5
t-10.5 0.5zM203 159l78 1h4q153 0 213 -20q6 -5 14 -5q10 0 14 5q60 20 213 20l83 -1h-1q32 0 40.5 12.5t8.5 56.5v429q-1 37 -14 50.5t-53 16.5q-74 -1 -164.5 -12t-123.5 -27l-3 -2l-1 1q-1 0 -2 1q-33 16 -123.5 27t-164.5 12q-40 -3 -53 -16.5t-14 -50.5v-429
q0 -44 8.5 -56.5t40.5 -12.5zM529 653h1q28 15 114.5 25t158.5 11q24 -2 28.5 -6t4.5 -27v-428q0 -13 -2 -20.5t-9 -10.5t-10.5 -3.5t-15.5 -0.5q-31 1 -60 1q-150 0 -210 -17v476zM188 656q0 23 4.5 27t28.5 6q72 -1 158.5 -11t114.5 -25h1v-476q-60 17 -210 17
q-29 0 -60 -1h-4q-9 0 -13.5 1t-10 4t-7.5 10.5t-2 19.5v428z" />
    <glyph glyph-name="uniE601" unicode="&#xe601;" 
d="M819 333q-4 28 -12 52l92 137l-75 94l-154 -59q-23 13 -47 23l-50 158h-120l-51 -158q-23 -9 -46 -22l-155 59l-75 -94l92 -138q-7 -22 -11 -49l-144 -85l27 -117l165 -14q14 -20 32 -40l-23 -165l108 -52l114 120q13 -1 27 -1q11 0 24 1l114 -121l108 52l-23 164
q20 20 33 41l165 13l27 118zM513 85q-86 0 -146 60.5t-60 146t60 145.5t145.5 60t146 -60t60.5 -145.5t-60.5 -146t-145.5 -60.5z" />
    <glyph glyph-name="uniE602" unicode="&#xe602;" 
d="M704 56h-499v360h115q28 39 85 76h-239q-16 0 -27 -11t-11 -27v-436q0 -16 11.5 -27t26.5 -11h576q16 0 27.5 11t11.5 27v218l-77 -63v-117zM640 364v-128l256 191l-256 193v-119q-63 0 -115 -18.5t-84 -46.5t-56.5 -65t-36 -69.5t-18.5 -65t-8.5 -46t-1.5 -18.5
q68 111 132.5 151.5t187.5 40.5z" />
    <glyph glyph-name="uniE603" unicode="&#xe603;" 
d="M746 261q-55 0 -95 -40l-179 104q16 34 16 72q0 46 -23 86l184 106q40 -42 97 -42t96.5 40t39.5 96t-39.5 96t-96 40t-96 -40t-39.5 -96q0 -27 10 -52l-187 -108q-50 47 -119 47q-72 0 -122.5 -51t-50.5 -122.5t50.5 -122t122.5 -50.5q78 0 130 58l177 -102
q-11 -26 -11 -55q0 -56 39.5 -96t96 -40t96 40t39.5 96t-39.5 96t-96.5 40z" />
    <glyph glyph-name="uniE604" unicode="&#xe604;" 
d="M285 110q0 -27 -19 -46t-46 -19t-46 19t-19 46v186q0 27 19 46t46 19t46 -19t19 -46v-186zM871 110q0 -27 -19 -46t-46 -19t-46.5 19t-19.5 46v186q0 27 19.5 46t46.5 19t46 -19t19 -46v-186zM130 131q0 -14 -9.5 -23.5t-23.5 -9.5q-13 0 -23 9.5t-10 23.5v144
q0 14 10 23.5t23 9.5q14 0 23.5 -9.5t9.5 -23.5v-144zM957 131q0 -14 -9.5 -23.5t-23.5 -9.5q-13 0 -23 9.5t-10 23.5v144q0 14 10 23.5t23 9.5q14 0 23.5 -9.5t9.5 -23.5v-144zM511 788q-111 0 -206 -55t-150.5 -149.5t-56.5 -206.5v-1q-1 -1 -1 -2q0 -10 7.5 -17.5
t18 -7.5t17.5 7.5t7 17.5v2q1 99 49.5 182.5t132.5 132t182 48.5t182 -48.5t132.5 -131.5t49.5 -181v-2v-2q0 -10 7 -17.5t17.5 -7.5t18 7.5t7.5 17.5q0 113 -55.5 208t-151 150.5t-207.5 55.5z" />
    <glyph glyph-name="uniE605" unicode="&#xe605;" 
d="M707 -51h-350v30q23 8 47 14q23 6 51 11v611h-133l-55 -147h-27q-3 20 -5 47q-2 23 -4 53q-1 25 -2 54q-1 26 -1 46h608q0 -19 -1 -45.5t-2 -53.5q-1 -4 -2 -23.5t-2 -29.5q-1 -27 -4 -48h-28l-55 147h-132v-611q30 -6 51 -11q24 -5 46 -14v-30zM707 -51z" />
    <glyph glyph-name="uniE606" unicode="&#xe606;" 
d="M365 342l95 -183q3 8 9 21.5t27 54.5t44 80.5t59 91.5t73.5 95.5t86.5 85t98 66.5q-1 -19 -6 -62.5t-6 -67t4.5 -60t19.5 -69.5q-50 -11 -133 -89t-155 -170t-109 -159q-75 91 -157 157.5t-146 89.5z" />
    <glyph glyph-name="uniE607" unicode="&#xe607;" 
d="M511.5 294q69.5 0 118.5 49t49 118v224q0 69 -49 118t-118.5 49t-118.5 -49t-49 -118v-224q0 -69 49 -118t118.5 -49zM819 447v0q0 18 -12.5 30t-29.5 12t-29.5 -12t-12.5 -30q0 -92 -65.5 -157.5t-158 -65.5t-158 65.5t-65.5 157.5q0 18 -12 30t-29.5 12t-30 -12
t-12.5 -30v0q0 -116 76.5 -202.5t189.5 -101.5v-101h-140q-17 0 -29.5 -12t-12.5 -29.5t12.5 -30t29.5 -12.5h363q18 0 30 12.5t12 30t-12 29.5t-30 12h-139v101q113 15 189 101.5t76 202.5z" />
    <glyph glyph-name="uniE608" unicode="&#xe608;" 
d="M912 -164l-8 -16h-22h-761h-25v24q2 94 22 170q30 111 95 167l7 6h9l107 1v-50l-98 1q-49 -47 -73 -137q-16 -60 -20 -134h719q2 57 -28 149q-26 78 -68 123h-112v48h128l10 -3q55 -51 88 -154q38 -119 30 -195zM512 -100l-64 48l41 166l-15 26l1 26q34 2 69 0l1 -26
l-16 -26l47 -166zM697 382q-24 -84 -69 -130q-46 -49 -123 -65l-4 -1l-4 1q-72 12 -121 61q-47 49 -72 133q-22 12 -33 38q-12 29 -11 74v12l9 6l10 6q-13 65 -4 122.5t47 93.5q19 13 52.5 16.5t65.5 0.5t70 3q31 4 56 4t44 -2t34 -11.5t25.5 -17t19 -25.5t13 -30t9 -38
t6.5 -42t6 -49q2 -19 3 -29l4 -2l9 -6v-12q1 -44 -10 -72q-11 -27 -32 -39zM674 471l-3 10h-7l-4 19q0 4 -4.5 51.5t-8.5 54.5q-3 -1 -6.5 -2t-8 0t-7.5 2t-8.5 3.5t-7.5 3.5t-8 4.5t-7 4.5l-9 -27l-14 2l2 16l-15 -24l-13 3l13 35q-33 -22 -80 -32t-82.5 -6.5t-43.5 14.5
q-1 -1 -5 -11q-1 -7 -4.5 -54t-5.5 -53l-1 -5q-1 -4 -2 -7q-5 3 -29 -1q1 -21 7 -35q6 -15 17 -18l12 -4l3 -12q22 -81 64 -124q37 -38 92 -48q60 14 96 51q39 41 61 122l3 11l11 4q10 3 16 18q6 14 7 35q-12 0 -20 -1z" />
    <glyph glyph-name="uniE609" unicode="&#xe609;" horiz-adv-x="1067" 
d="M540 -33q-84 0 -154 33q-69 30 -128 89q-59 63 -86 131q-33 87 -33 164q0 89 33 164q31 77 86 131q54 59 128 89q70 33 154 33t154 -33q59 -25 128 -89q58 -63 85 -131q33 -87 33 -164q0 -112 -55 -213q-3 -5 -9 -9t-11 -4q-10 0 -13 3q-8 5 -11.5 15.5t1.5 20.5
q49 84 49 187q0 71 -26 144q-24 61 -76 119q-50 50 -111 78q-64 30 -138 30q-67 0 -138 -33q-66 -33 -112 -79q-51 -51 -75 -118q-26 -61 -26 -144q0 -71 26 -145q23 -61 75 -118q51 -50 112 -79q64 -29 138 -29q105 0 194 59q3 3 13 3q15 0 19 -13q10 -20 -6 -36
q-112 -56 -220 -56zM537 368q-17 0 -17 16v200q0 17 17 17q16 0 16 -17v-200q0 -16 -16 -16zM520 384q0 16 17 16h200q16 0 16 -16t-16 -16h-200q-17 0 -17 16z" />
    <glyph glyph-name="uniE60A" unicode="&#xe60a;" 
d="M186 582h212v-636h-212v636zM610 582h212v-636h-212v636z" />
    <glyph glyph-name="uniE60B" unicode="&#xe60b;" 
d="M695 453q-210 -210 -210 -211q-5 -4 -12.5 -4t-12.5 5t-5 12t5 12l211 210l-67 66l-211 -211q-5 -5 -12 -5t-12 5t-5 12.5t5 11.5l211 212l-53 53l-270 -270q-3 -3 -4 -6l-109 -301q-5 -13 4 -22q10 -10 23 -6l301 110q3 1 6 4l270 270zM302 122l-53 53l46 125l133 -132z
M857 508l-84 -84l-93 93q-83 83 -129 128l85 85q22 22 54.5 22t54.5 -22l112 -112q23 -23 23 -55t-23 -55z" />
    <glyph glyph-name="uniE60C" unicode="&#xe60c;" 
d="M476 539h72v-71h-72v71zM476 406h72v-369h-72v369zM512 704q-113 0 -209 -55.5t-151.5 -151.5t-55.5 -209t55.5 -209t151.5 -151.5t209 -55.5t209 55.5t151.5 151.5t55.5 209t-55.5 209t-151.5 151.5t-209 55.5zM512 -89q-102 0 -189 50.5t-137.5 137.5t-50.5 189
t50.5 189t137.5 137.5t189 50.5t189 -50.5t137.5 -137.5t50.5 -189t-50.5 -189t-137.5 -137.5t-189 -50.5z" />
    <glyph glyph-name="uniE60D" unicode="&#xe60d;" 
d="M747 172q-63 0 -100 -50l-150 85q19 38 19 80q0 46 -22 86l150 86q17 -26 44 -40.5t59 -14.5q51 0 87.5 36.5t36.5 88t-36.5 88t-88 36.5t-88 -36.5t-36.5 -88.5q0 -24 9 -46l-152 -86q-25 34 -63 53t-82 19q-75 0 -128 -53t-53 -128t53 -128.5t128 -53.5q46 0 85.5 21.5
t64.5 57.5l149 -85q-11 -24 -11 -51q0 -52 36.5 -88.5t88 -36.5t88 36.5t36.5 88t-36.5 88t-87.5 36.5zM747 612q35 0 59.5 -24.5t24.5 -59.5t-24.5 -59.5t-59.5 -24.5t-59.5 24.5t-24.5 59.5t24.5 59.5t59.5 24.5zM334.5 145q-58.5 0 -100 41.5t-41.5 100t41.5 100
t100 41.5t100 -41.5t41.5 -100t-41.5 -100t-100 -41.5zM747 -36q-35 0 -59.5 24.5t-24.5 59.5t24.5 59.5t59.5 24.5t59.5 -24.5t24.5 -59.5t-24.5 -59.5t-59.5 -24.5z" />
    <glyph glyph-name="uniE60E" unicode="&#xe60e;" 
d="M512 109q-73 0 -141 28q-64 28 -114 78t-78 114q-28 68 -28 141q0 60 19 116q3 7 10 10.5t14.5 1t11 -9.5t1.5 -15q-17 -50 -17 -103q0 -87 43 -161.5t117.5 -117.5t161.5 -43t161.5 43t117.5 117.5t43 161.5t-43 161.5t-117.5 117.5t-161.5 43q-111 0 -198 -68
q-6 -5 -14 -4t-13 7.5t-4 14.5t7 13q47 36 103 56q57 20 119 20q73 0 141 -28q64 -28 114 -78t78 -115q28 -67 28 -140t-28 -141q-28 -64 -78 -114t-114 -78q-68 -28 -141 -28zM756 366zM742 530q-13 0 -18 11q-46 103 -145 155q-8 4 -10 11.5t1.5 15t11 10t15.5 -1.5
q111 -59 162 -174q4 -7 1 -14.5t-10 -10.5q-4 -2 -8 -2zM580 -17h-137q-17 0 -29.5 12.5t-12.5 29.5t12.5 29.5t29.5 12.5h137q17 0 29.5 -12.5t12.5 -29.5t-12.5 -29.5t-29.5 -12.5zM443 28q-3 0 -3 -3t3 -3h137q3 0 3 3t-3 3h-137zM596 40h-169q-20 0 -33.5 13.5t-13.5 33
t13.5 33t33.5 13.5h169q19 0 33 -13.5t14 -33t-14 -33t-33 -13.5zM427 94q-8 0 -8 -7.5t8 -7.5h169q8 0 8 7.5t-8 7.5h-169zM511.5 -67q-29.5 0 -53 18t-31.5 47q-2 8 2 15t11.5 9t14.5 -2t9 -12q5 -16 18 -26t29.5 -10t29.5 10t17 26q3 8 10 12t14.5 2t11.5 -9t2 -15
q-8 -29 -31.5 -47t-53 -18z" />
    <glyph glyph-name="uniE60F" unicode="&#xe60f;" 
d="M344 33q-13 0 -21.5 9t-8.5 21.5t9 21.5l309 304l-312 313q-9 9 -9 21.5t9 21.5t21.5 9t21.5 -9l335 -334q9 -10 9 -22.5t-10 -21.5l-331 -325q-9 -9 -22 -9z" />
    <glyph glyph-name="uniE610" unicode="&#xe610;" 
d="M442 112q-10 0 -21 2l-145 17q-16 1 -18 18l-16 150q-1 0 -1 1q-6 49 28 84l353 353q29 29 70.5 29t70.5 -29l102 -102q29 -29 29 -70.5t-29 -70.5l-353 -353q-29 -29 -70 -29zM297 169l130 -14h2q31 -7 54 15l353 353q17 17 17 41.5t-17 41.5l-102 102q-17 17 -41.5 17
t-41.5 -17l-353 -353q-21 -21 -16 -51v-3zM446 216q-14 0 -19 14q-9 25 -27 44q-18 18 -41 26q-8 3 -11.5 11t-0.5 16t11 11.5t15 0.5q32 -12 55 -36q26 -26 38 -59q3 -8 -1 -16t-12 -10q-3 -2 -7 -2zM256.5 108q-8.5 0 -14.5 6t-6 14.5t6 14.5l35 34q6 6 14.5 6t14.5 -6
t6 -14.5t-6 -14.5l-35 -34q-6 -6 -14.5 -6zM856.5 183q-8.5 0 -14.5 6t-6 14v175q0 9 6 15t14.5 6t14.5 -6t6 -15v-175q0 -8 -6 -14t-14.5 -6zM733 5h-459q-59 0 -101.5 42.5t-42.5 101.5v458q0 60 42.5 102.5t101.5 42.5h230q8 0 14 -6t6 -14.5t-6 -14.5t-14 -6h-230
q-42 0 -72.5 -30.5t-30.5 -73.5v-458q0 -43 30.5 -73t72.5 -30h459q42 0 72.5 30t30.5 73v59q0 8 6 14t14.5 6t14.5 -6t6 -14v-59q0 -59 -42.5 -101.5t-101.5 -42.5z" />
    <glyph glyph-name="uniE611" unicode="&#xe611;" 
d="M331 595q-11 11 -25 16.5t-29.5 5.5t-30 -6t-24.5 -16.5t-16 -24.5t-6 -30t6 -30q6 -13 16.5 -23.5t24.5 -16.5t29.5 -6t29.5 6t25 16q10 11 16 24q6 14 6 30t-6 30t-16 25zM460 92q1 106 77 180.5t181 73.5q49 0 95 -18v377q0 17 -13 30t-31 13h-657q-18 0 -30.5 -13
t-12.5 -30v-658q0 -17 12.5 -30t30.5 -13h362q-15 43 -14 88zM368 280q-31 -14 -80 -13q-35 1 -63.5 10t-48.5 24t-31 34q-11 20 -11 41v262q0 19 13 32t31 13h525q18 0 31 -13t13 -32v-174q-26 -1 -35.5 -0.5t-12.5 0.5h-5q-1 1 -13 0q-63 -1 -103 -16t-67 -37.5t-47 -47.5
q-20 -26 -42 -47q-23 -22 -54 -36zM732 301q-91 0 -157 -64.5t-67 -156.5q-1 -94 63.5 -160.5t156.5 -67.5q94 -1 160.5 64t67 158.5t-65 159.5t-158.5 67zM784 88v-115h-105v115h-39l92 91l91 -91h-39z" />
    <glyph glyph-name="uniE612" unicode="&#xe612;" 
d="M422 105h96l-160 -148q-10 -10 -25.5 -12.5t-25.5 6.5q-14 9 -15 25.5t9 25.5zM838 617q13 0 39 -13q9 -9 11 -16t2 -23v-300h-679v300q0 13 13 39q9 9 15.5 11t22.5 2h576zM211 213h672v-6q0 -13 -13 -38q-9 -9 -15.5 -11t-22.5 -2h-570q-12 0 -38 13q-13 25 -13 44v0z
M640 105l122 -96q10 -10 8.5 -26t-15.5 -26q-10 -9 -25.5 -6.5t-25.5 13.5l-160 141h96zM640 105z" />
    <glyph glyph-name="uniE613" unicode="&#xe613;" 
d="M710 625v48q0 10 -8.5 18.5t-19 8.5t-19 -8.5t-8.5 -18.5v-48h55zM710 625zM389 625v48q0 10 -8.5 18.5t-18.5 8.5t-18.5 -8.5t-8.5 -18.5v-48h54zM389 625zM840 277q-57 0 -97 -40t-40 -96.5t40 -96.5t96.5 -40t96.5 40t40 96.5t-40 96.5t-96 40v0zM928 175l-95 -96
q-7 -7 -14 -7t-13 7l-48 55q-5 5 -5 13.5t5 13.5t13.5 5t13.5 -5l41 -41l82 82q5 5 13.5 5t13.5 -5q0 -21 -7 -27v0zM928 175zM655 141q0 76 54 130t131 54v246q0 20 -14 33.5t-34 13.5h-89v-47q0 -11 -8.5 -19.5t-18.5 -8.5t-18.5 8.5t-8.5 19.5v54h-274v-48
q0 -10 -8.5 -18.5t-18.5 -8.5t-18.5 8.5t-8.5 18.5v48h-68q-21 0 -34.5 -13.5t-13.5 -34.5v-539q0 -20 13.5 -34t34.5 -14h498q-41 16 -68.5 58t-27.5 93v0zM253 441q0 10 8.5 18.5t18.5 8.5h491q11 0 19.5 -8.5t8.5 -18.5t-8.5 -18.5t-19.5 -8.5h-498q-20 10 -20 27v0z
M526 79h-212q-10 0 -18.5 8.5t-8.5 19t8.5 19t18.5 8.5h212q10 0 18.5 -8.5t8.5 -19.5l-7 -14q-3 -4 -8.5 -8.5t-11.5 -4.5v0zM526 229h-212q-10 0 -18.5 8.5t-8.5 19t8.5 19t18.5 8.5h212q10 0 18.5 -8.5t8.5 -18.5q-5 -16 -11 -22t-16 -6v0zM526 229z" />
    <glyph glyph-name="uniE614" unicode="&#xe614;" 
d="M641 680v76h-259v-76h-171v-74h602v74h-172zM239 556l44 -537h458l44 537h-546zM426 121h-70v342h70v-342zM546 121h-69v342h69v-342zM670 121h-72v342h72v-342z" />
    <glyph glyph-name="uniE615" unicode="&#xe615;" 
d="M698 612v51q0 10 -8 18t-18 8t-18 -8t-8 -18v-44h52v-7zM384 612v51q0 10 -8 18t-17.5 8t-17.5 -8t-8 -18v-44h51v-7zM646 139q0 75 53 127t127 52v243q0 19 -13 32t-32 13h-90v-45q0 -10 -8 -18t-17.5 -8t-17.5 8t-8 18v51h-269v-45q0 -9 -8 -17t-17.5 -8t-17.5 8t-8 17
v45h-64q-19 0 -32 -12.5t-13 -32.5v-531q0 -19 13 -32t32 -13h486q-42 15 -69 57t-27 91v0zM250 433q0 10 8 18t17 8h480q10 0 18 -8t8 -18t-8 -18t-18 -8h-486q-19 10 -19 26v0zM518 81h-211q-9 0 -17 8t-8 17.5t8 17.5t17 8h205q10 0 18 -8t8 -17q0 -11 -5.5 -18.5
t-14.5 -7.5v0zM518 228h-211q-9 0 -17 8t-8 17.5t8 17.5t17 8h205q10 0 18 -8t8 -17q0 -26 -20 -26v0zM825.5 273q-57.5 0 -96 -38.5t-38.5 -96t38.5 -96t96 -38.5t96 38.5t38.5 96t-38.5 96t-96 38.5zM902 94q11 -21 0 -32q-21 -11 -32 0l-38 45l-38 -45q-5 -10 -16.5 -10
t-15.5 10q-10 5 -10 16t10 16l44 51l-44 51q-11 22 0 32q21 11 32 0l38 -45l38 45q5 10 16.5 10t15.5 -10q10 -5 10 -16t-10 -16l-44 -51z" />
    <glyph glyph-name="uniE616" unicode="&#xe616;" 
d="M932 339q0 -5 -3.5 -8.5t-8.5 -3.5h-331v-330q0 -5 -3.5 -8.5t-8.5 -3.5h-133q-5 0 -8.5 3.5t-3.5 8.5v330h-328q-5 0 -8.5 3.5t-3.5 8.5v133q0 5 3.5 8.5t8.5 3.5h328v329q0 5 3.5 9t8.5 4l133 -1q5 0 8.5 -3.5t3.5 -8.5v-329h331q5 0 8.5 -3.5t3.5 -8.5v-133z" />
    <glyph glyph-name="uniE617" unicode="&#xe617;" 
d="M704 576h-472l141 141q9 9 9 22t-9 22t-21.5 9t-21.5 -9l-195 -194q-9 -9 -9 -22t9 -22l195 -194q9 -9 21.5 -9t21.5 9t9 22t-9 22l-140 139h471q80 0 136 -56t56 -136t-56 -136t-136 -56h-416q-13 0 -22.5 -9.5t-9.5 -22.5t9.5 -22.5t22.5 -9.5h416q106 0 181 75t75 181
t-75 181t-181 75z" />
    <glyph glyph-name="uniE618" unicode="&#xe618;" 
d="M952 692q9 9 9 22.5t-9 22.5l-2 1q-9 10 -22.5 10t-22.5 -10l-370 -369q-9 -10 -22.5 -10t-22.5 10l-370 369q-9 10 -22.5 10t-22.5 -10l-1 -1q-10 -9 -10 -22.5t10 -22.5l369 -370q10 -9 10 -22.5t-10 -22.5l-369 -370q-10 -9 -10 -22.5t10 -22.5l1 -2q9 -9 22.5 -9
t22.5 9l370 370q9 9 22.5 9t22.5 -9l370 -370q9 -9 22.5 -9t22.5 9l2 2q9 9 9 22.5t-9 22.5l-370 370q-9 9 -9 22.5t9 22.5z" />
    <glyph glyph-name="uniE619" unicode="&#xe619;" 
d="M592 -44v255h-159v-255l-13 -1h-227q-20 0 -31.5 12t-11.5 32q-1 138 0 314q0 9 8 16q50 44 206 181q15 13 43 37.5t50.5 44.5t42.5 38q2 1 6 4.5t6 4.5q68 -59 82 -71q225 -197 267 -234q14 -12 14 -30v-298q0 -31 -19 -44q-10 -7 -19 -7h-240q-1 0 -5 1v0zM1005 402
q14 -13 14.5 -22t-11.5 -24l-14 -18q-10 -12 -15 -19q-17 -20 -37 -3q-72 65 -211 188t-204 180q-2 3 -7.5 7.5t-7.5 6.5q-7 -7 -41 -37t-52 -46q-42 -37 -158 -139.5t-179 -158.5q-11 -10 -19.5 -9.5t-17.5 12.5q-17 20 -32 40q-9 11 -8.5 20t11.5 19q31 27 188 166
q250 222 252 223q56 50 113 0z" />
    <glyph glyph-name="uniE61A" unicode="&#xe61a;" 
d="M873 629l-115 115l-247 -245l-245 245l-115 -115l245 -245l-245 -245l115 -115l245 245l247 -245l115 115l-247 245z" />
    <glyph glyph-name="uniE61B" unicode="&#xe61b;" 
d="M490 135l-114 -113l-7 -7zM368 15l-322 316l122 120l193 -190l479 529l122 -120l-472 -535z" />
    <glyph glyph-name="uniE61C" unicode="&#xe61c;" 
d="M702 64q-80 -56 -178 -55q-12 0 -25 1q-2 0 -5.5 0.5t-4.5 1.5q-13 1 -19 2q-1 1 -11 3q-12 3 -19 5l-8 3q-13 4 -21 7q0 1 -4 3q-14 6 -24 11h-1q-38 22 -69 53v1h-1l-18 20q-1 1 -2 2.5t-2 2.5q-66 84 -66 192h70q3 0 4.5 2.5t0.5 4.5l-119 180q-1 3 -4 3t-4 -3
l-119 -180q-2 -2 -0.5 -4.5t4.5 -2.5h71q0 -126 71 -230l1 -1v-2q3 -3 15 -19q0 -1 2 -3.5t3 -3.5q10 -12 23 -26q2 -2 3 -2q40 -41 90 -68l2 -2q13 -7 29 -14q1 -1 3.5 -2t4.5 -1q10 -5 25 -10q10 -3 13 -4q8 -3 23 -6q13 -3 16 -4q1 0 3 -0.5t3 -0.5q5 -1 23 -3q1 -1 3 -1
h5q22 -3 40 -3q125 0 228 74q17 11 20.5 31t-8 36.5t-31 20t-36.5 -8.5zM928 317q0 125 -71 228q0 1 -0.5 2t-0.5 2q-6 7 -18 23l-1 1l-1 1q-61 75 -149 114q-1 0 -2.5 1t-2.5 1q-12 5 -28 11q-1 0 -3 0.5t-4 1.5t-3 1q-10 3 -26 7q-12 2 -14 3q-1 0 -3 0.5t-4 0.5
q-3 1 -10 2t-9 1q-1 0 -5.5 0.5t-7.5 0.5q-13 2 -31 2h-3h-3h-1q-126 0 -228 -73q-17 -11 -20.5 -31t8 -36.5t31 -20t36.5 8.5q79 56 176 55q14 0 27 -1q1 0 4 -0.5t4 -0.5q12 -2 21 -4q1 0 10 -2l20 -5q1 -1 3.5 -1.5t3.5 -0.5q12 -5 22 -9q1 0 1.5 -0.5t1.5 -0.5
q67 -29 114 -87q1 0 1 -1q69 -85 69 -194h-71q-3 0 -4.5 -3t0.5 -5l119 -180q1 -3 4 -3t4 3l119 180q1 2 -0.5 5t-4.5 3h-70z" />
    <glyph glyph-name="uniE61D" unicode="&#xe61d;" 
d="M187 624h650v-74h-650v74zM512 539l325 -336h-189l1 -252h-273v252h-189zM512 539z" />
    <glyph glyph-name="uniE61E" unicode="&#xe61e;" 
d="M201 130h622v-78h-622v78zM823 440h-156v311h-310v-311h-156l311 -310z" />
    <glyph glyph-name="uniE61F" unicode="&#xe61f;" 
d="M1013 -100l-198 198q84 118 84 263q0 91 -35.5 174.5t-95.5 143.5t-143.5 95.5t-174.5 35.5t-174.5 -35.5t-143.5 -95.5t-95.5 -143.5t-35.5 -174.5t35.5 -174.5t95.5 -143.5t143.5 -95.5t174.5 -35.5q145 0 263 84l198 -198q11 -11 26 -11t25 11l51 51q11 10 11 25
t-11 26zM129 361q0 87 43 161t117 117t161 43t161 -43t117 -117t43 -161t-43 -161t-117 -117t-161 -43t-161 43t-117 117t-43 161z" />
    <glyph glyph-name="uniE620" unicode="&#xe620;" 
d="M986 -126q3 18 3 48q0 154 -92.5 276.5t-236.5 168.5q58 41 91 103t33 135q0 121 -85.5 206t-205.5 85t-206.5 -86t-86.5 -205q0 -77 37.5 -143t101.5 -105q-135 -52 -219.5 -170.5t-84.5 -264.5q0 -33 3 -48h53h68h706h61h60zM296 605q0 80 56.5 137.5t137.5 57.5
t138 -57t57 -138q0 -80 -56.5 -137.5t-138.5 -57.5q-80 0 -137 57t-57 138zM154 -25q15 134 117 224t240 90q137 0 239 -90t117 -221h-713v-3z" />
    <glyph glyph-name="uniE621" unicode="&#xe621;" 
d="M252 685h492v-98h-492v98zM252 501h492v-97h-492v97zM92 894v-1022h469l371 420v604h-840v-2zM187 -33v834h648v-509h-274v-325h-374zM807 234l-172 -195v195h172zM642 -33l193 218z" />
    <glyph glyph-name="uniE622" unicode="&#xe622;" 
d="M502.5 165q94.5 0 164.5 67t70 160v277q0 93 -70 160t-164.5 67t-164.5 -67t-70 -160v-277q0 -93 70 -160t164.5 -67zM897 380h-102q0 -114 -82 -184t-203 -70q-120 0 -200.5 69.5t-80.5 184.5h-102q0 -144 93.5 -241.5t242.5 -117.5v-71h-156v-78h430v78h-157v71
q148 23 232.5 118t84.5 241z" />
    <glyph glyph-name="uniE623" unicode="&#xe623;" horiz-adv-x="1169" 
d="M0 896h1169v-682h-1169v682zM0 151h1169v-62h-1169v62zM207 70l52 -42l-126 -155l-51 41zM1088 -86l-52 -42l-126 155l52 42z" />
    <glyph glyph-name="uniE624" unicode="&#xe624;" 
d="M442 495h133v-438h-133v438zM442 645h133v-91h-133v91zM511 896q-104 0 -198.5 -40.5t-163 -109t-108.5 -163.5t-40 -199t40.5 -199t109 -163.5t162.5 -109t198 -40.5t199 40.5t163.5 109t109 163.5t40.5 199t-40.5 199t-109 163.5t-163.5 109t-199 40.5zM510.5 -30
q-112.5 0 -207.5 56t-150.5 151t-55.5 207t55.5 207.5t150.5 152t208 56.5q112 0 207.5 -55t150.5 -150.5t55 -208t-55 -208.5t-150.5 -152t-208 -56z" />
    <glyph glyph-name="uniE625" unicode="&#xe625;" 
d="M22 896v-1024h980v1024h-980zM888 -19h-760v806h562v-366h109v366h89v-806z" />
    <glyph glyph-name="uniE626" unicode="&#xe626;" horiz-adv-x="1031" 
d="M1031 321v119h-176q-15 75 -57 138l125 125l-81 81l-126 -125q-63 43 -138 58v179h-122v-179q-72 -16 -135 -58l-128 129l-81 -81l128 -129q-39 -58 -54 -135h-186v-118h189q16 -75 54 -132l-131 -132l81 -81l131 132q61 -44 132 -54v-186h119v186q36 5 69 18.5t66 35.5
l128 -128l81 81l-128 128q46 62 61 135h179v-7zM517 125q-106 0 -179.5 74.5t-73.5 179.5q0 106 74.5 179.5t178.5 73.5q106 0 180 -74.5t74 -178.5t-75 -179t-179 -75zM517 538q-65 0 -110 -46t-45 -110q0 -65 45.5 -110t109.5 -45q65 0 110.5 45.5t45.5 109.5t-46.5 110
t-109.5 46zM517 278q-43 0 -74 30.5t-31 73.5q0 41 31 71.5t74 30.5t74 -31t31 -74q-3 -42 -33 -71.5t-72 -29.5z" />
    <glyph glyph-name="uniE627" unicode="&#xe627;" horiz-adv-x="1056" 
d="M935 402v-441h-801v846h641l115 89h-890v-1024h1024v619zM436 299h-4l-71 -173l182 67l512 512l-107 111l-516 -517h4z" />
    <glyph glyph-name="uniE628" unicode="&#xe628;" 
d="M362 635v-251v-251l216 125l217 126l-217 126zM512 896q-212 0 -362 -150t-150 -362t150 -362t362 -150t362 150t150 362t-150 362t-362 150zM512 -27q-113 0 -208 55t-150.5 150.5t-55.5 207.5t55.5 206.5t150.5 150t208 55.5t208 -55.5t150.5 -150.5t55.5 -208
t-55.5 -207.5t-150.5 -149t-208 -54.5z" />
    <glyph glyph-name="uniE629" unicode="&#xe629;" horiz-adv-x="1115" 
d="M939 223q-54 0 -98.5 -30.5t-65.5 -79.5l-307 122q5 30 5 44q0 60 -27 110l273 222q51 -66 137 -66q73 0 124 51t51 124.5t-51 124.5t-124 51t-124.5 -51t-51.5 -125v-14l-295 -244q-67 51 -149 51q-98 0 -167 -69.5t-69 -166.5q0 -99 69.5 -168t166.5 -69q60 0 112 28.5
t84 76.5l336 -132q13 -60 61 -100.5t110 -40.5q73 0 124 51t51 124.5t-51 124.5t-124 51zM856 794q33 0 55.5 -23t22.5 -55.5t-22.5 -55t-55.5 -22.5t-55.5 22.5t-22.5 55t22.5 55.5t55.5 23zM236 138q-58 0 -98 41t-40 98q0 58 40.5 98.5t97.5 40.5q59 0 99 -41t40 -98
q0 -58 -40.5 -98.5t-98.5 -40.5zM939 -30q-33 0 -55.5 22.5t-22.5 55t22.5 55.5t55.5 23t55.5 -23t22.5 -55t-23 -55t-55 -23z" />
    <glyph glyph-name="uniE62A" unicode="&#xe62a;" 
d="M485 228q3 0 10.5 -1t11.5 -1h17q79 -4 149.5 -36.5t119.5 -87.5l65 56q-76 86 -187 126q43 37 67.5 87.5t24.5 107.5q0 67 -32.5 123.5t-87.5 91.5v113h111v89h-506v-89h111v-119q-50 -35 -79 -90t-29 -119q0 -57 23.5 -107.5t65.5 -85.5q-114 -39 -190 -126.5
t-93 -198.5l-6 -50h631v87h-525q31 98 121 161.5t207 68.5zM446 809h108v-78q-30 4 -47 4q-33 0 -59 -6v80h-2zM340 482q0 68 48.5 117.5t118.5 49.5t118.5 -48.5t48.5 -118.5q0 -68 -47 -116t-114 -51h-6h-5q-68 3 -115 51t-47 116zM973 24h-85v84h-67v-84h-84v-67h84v-85
h67v85h85v67z" />
    <glyph glyph-name="uniE62B" unicode="&#xe62b;" 
d="M209 108q-7 0 -9 4t3 10l298 357q4 6 10.5 6t11.5 -6l298 -357q4 -6 2.5 -10t-9.5 -4h-605z" />
    <glyph glyph-name="uniE62C" unicode="&#xe62c;" 
d="M815 576q7 0 9 -4t-3 -10l-298 -357q-4 -6 -10.5 -6t-11.5 6l-298 357q-4 6 -2.5 10t9.5 4h605z" />
    <glyph glyph-name="uniE62D" unicode="&#xe62d;" 
d="M506 825q-90 0 -172 -35t-141.5 -94.5t-94.5 -141.5t-35 -172.5t35 -172.5t94.5 -141.5t141.5 -94.5t172 -35t172.5 35t141.5 94.5t94.5 141.5t35.5 172.5t-35.5 172.5t-94.5 141.5t-141.5 94.5t-172.5 35v0zM506 1q-103 0 -190.5 51t-138.5 138.5t-51 191t51 191
t138.5 138.5t190.5 51t190.5 -51t138.5 -138.5t51 -191t-51 -191t-138.5 -138.5t-190.5 -51v0zM425 178q-4 0 -7 1q-9 5 -9 15v361q0 10 8.5 14.5t16.5 -1.5l254 -176q6 -4 6 -12.5t-6 -13.5l-254 -185q-4 -3 -9 -3z" />
    <glyph glyph-name="uniE62E" unicode="&#xe62e;" 
d="M576 159v354q0 19 16.5 27t32.5 0t16 -27v-354q0 -19 -16 -27t-32.5 0t-16.5 27v0zM383 159v354q0 19 16 27t32.5 0t16.5 -27v-354q0 -19 -16.5 -27t-32.5 0t-16 27v0zM931 673h-161v65q0 39 -28.5 67.5t-67.5 28.5h-323q-40 0 -68.5 -28t-28.5 -68v-65h-160
q-20 0 -28 -16t0 -32t28 -16h837q19 0 27 16t0 32t-27 16v0zM319 738q0 12 9.5 22t22.5 10h323q13 0 22 -9t9 -23v-65h-386v65zM737 -66h-450q-40 0 -68.5 28t-28.5 68v483q0 14 9.5 23t22.5 9t22.5 -9t9.5 -23v-483q0 -12 10 -22t23 -10h450q13 0 23 10t10 22v482
q0 19 16 27.5t32 0t16 -27.5v-482q0 -40 -28.5 -68t-68.5 -28v0zM737 -66z" />
    <glyph glyph-name="uniE62F" unicode="&#xe62f;" 
d="M782.5 573.5q-73.5 73.5 -171.5 99.5t-196.5 0t-172 -99.5t-99.5 -172t0 -197t99 -171.5q55 -55 126.5 -83.5t144 -28.5t144.5 28.5t127 83.5q73 73 99 171.5t-0.5 197t-100 172zM654 324v-75h-103v-30h103v-75h-103v-80h-83v80h-103v75h103v30h-103v75h62l-95 187h94
l62 -128q14 -30 17 -39q2 10 16 39l63 128h94l-96 -187h72z" />
    <glyph glyph-name="uniE630" unicode="&#xe630;" 
d="M407 468h-106v124q0 40 16 75t44.5 62t66.5 42t84 15q40 0 77.5 -15t67 -42t46.5 -62t17 -75v-124h-102v100q0 54 -29.5 83t-79.5 29q-46 0 -74 -29t-28 -83v-100zM771 418q23 0 39 -16.5t16 -39.5v-261q0 -23 -8 -43t-21.5 -34.5t-32.5 -23t-42 -8.5h-426
q-23 0 -41.5 8.5t-31.5 22.5t-20 32.5t-7 39.5v267q0 23 16 39.5t39 16.5h520z" />
    <glyph glyph-name="uniE631" unicode="&#xe631;" 
d="M356 748h-159v-569h159v569zM582 657h-159v-478h159v478zM106 88v-68h816v68h-816zM808 566h-158v-387h158v387z" />
    <glyph glyph-name="uniE632" unicode="&#xe632;" 
d="M572 817q30 -106 30 -192q0 -63 -38 -106t-99 -43t-103 43.5t-42 105.5l1 15q-61 -74 -95 -165t-34 -191q0 -87 43 -160.5t116.5 -116.5t160.5 -43t160.5 43t116.5 116.5t43 160.5q0 158 -70 297.5t-190 235.5zM500 84q-53 0 -90.5 36.5t-37.5 89.5q0 48 29.5 81t82.5 43
q57 12 106.5 38.5t78.5 65.5q23 -78 23 -162q0 -80 -56 -136t-136 -56z" />
    <glyph glyph-name="uniE633" unicode="&#xe633;" 
d="M1007 452l-129 -324h-110q7 59 22 157q-16 -44 -35 -87l-31 -70h-110l46 324h87q-2 -12 -28 -186q6 18 73 186h84l-30 -186q27 82 74 186h87zM609 292h-139l-20 -78q-7 -25 -5 -32t11 -7q13 0 19.5 9.5t13.5 36.5l12 48h102l-7 -27q-9 -34 -18 -52t-29 -38.5t-46 -30.5
t-61 -10q-34 0 -57.5 10t-33 27.5t-10 39t10.5 61.5l27 106q13 47 32.5 74.5t51.5 42t69 14.5q45 0 69.5 -17.5t29 -46.5t-9.5 -82zM520 422q-11 0 -15.5 -7t-12.5 -37l-7 -27h32l7 27q7 28 6 36t-10 8zM431 495q-35 -15 -56.5 -44.5t-35.5 -79.5l-30 -113
q-11 -43 -11 -65.5t11 -41t36 -29.5q1 0 1.5 -0.5t1.5 -0.5l-3 -10h-129l-8 248l-68 -248h-123l151 546h122l15 -246l68 246h122l-42 -154q-12 -3 -22 -8z" />
    <glyph glyph-name="uniE634" unicode="&#xe634;" horiz-adv-x="1025" 
d="M512 -128q-104 0 -198.5 40.5t-163.5 109t-109.5 163.5t-40.5 199t40.5 199t109 163.5t163.5 109t199 40.5t199 -40.5t163.5 -109t109.5 -163.5t41 -199t-41 -199t-109.5 -163.5t-163.5 -109t-199 -40.5zM512 832q-91 0 -174 -35.5t-143 -95.5t-95.5 -143t-35.5 -174
t35.5 -174t95.5 -143t143 -96t174 -36t174 35.5t143.5 95.5t96 143.5t35.5 174.5t-35.5 174t-95.5 143t-143 95.5t-175 35.5zM512 80q-76 0 -144.5 31.5t-117.5 89.5q-8 10 -7 23t11 22t23 8t22 -11q41 -47 96.5 -73t117.5 -26t118 25.5t96 73.5q9 10 22 11t23 -8t11 -22
t-8 -23q-50 -57 -118.5 -89t-144.5 -32zM349.5 386q-21.5 0 -36.5 15.5t-15 36.5v70q0 21 15 36.5t36.5 15.5t36.5 -15.5t15 -36.5v-70q0 -21 -15 -36.5t-36.5 -15.5zM675 386q-21 0 -36 15.5t-15 36.5v70q0 21 15 36.5t36 15.5t36.5 -15.5t15.5 -36.5v-70q0 -21 -15 -36.5
t-37 -15.5z" />
    <glyph glyph-name="uniE635" unicode="&#xe635;" horiz-adv-x="1000" 
d="M918 736.5q-12 11.5 -28.5 11.5t-28.5 -11l-396 -396q-11 -12 -11 -28.5t11.5 -28.5t28 -12t28.5 12l396 396q12 12 12 28.5t-12 28zM771.5 312q-16.5 0 -28 -11.5t-11.5 -28.5v-198q0 -16 -12 -28t-28 -12h-515q-17 0 -28.5 12t-11.5 28v634q0 17 11.5 28.5t28.5 11.5
h396q17 0 28.5 11.5t11.5 28t-11.5 28t-28.5 11.5h-436q-33 0 -56 -23t-23 -56v-714q0 -32 23 -55.5t56 -23.5h595q33 0 56 23.5t23 55.5v238q0 17 -11.5 28.5t-28 11.5z" />
    <glyph glyph-name="uniE636" unicode="&#xe636;" 
d="M805 780v-799q0 -33 -23 -56.5t-56 -23.5q-31 0 -54 21l-527 395q-26 20 -31 52.5t15 58.5q7 10 16 16l533 400q26 20 59 15t52 -31q16 -21 16 -48z" />
    <glyph glyph-name="uniE637" unicode="&#xe637;" 
d="M219 -12v799q0 33 23 56.5t56 23.5q31 0 54 -21l527 -395q26 -20 31 -52.5t-15 -58.5q-7 -10 -16 -16l-533 -400q-26 -20 -59 -15t-52 31q-16 21 -16 48v0z" />
    <glyph glyph-name="uniE638" unicode="&#xe638;" horiz-adv-x="1048" 
d="M1026 491l-775 -490q-16 -11 -34.5 -6.5t-28.5 20.5l-156 245q-10 16 -5.5 34.5t20.5 28.5l775 491q16 10 34.5 6t28.5 -20l155 -245q10 -16 6 -35t-20 -29zM63 297q-12 -8 -4 -20l155 -246q8 -12 20 -4l775 491q13 7 5 20l-156 245q-7 12 -20 5zM334 702l-4 33l29 -17
l30 13l-7 -32l22 -25l-33 -3l-17 -29l-13 31l-33 7zM509 764l14 31l16 -30l33 -3l-23 -25l7 -32l-30 14l-29 -17l4 33l-25 23zM860 251l19 -27l-33 1l-20 -27l-9 32l-32 11l28 18v34l26 -21l32 11zM738 110l4 -33l-29 18l-30 -14l8 33l-23 25l34 2l17 29l12 -31l33 -7z
M563 50l-14 -31l-16 30l-33 3l23 24l-7 33l31 -14l29 16l-5 -33l25 -23zM216 565l-19 28l33 -2l20 27l9 -32l32 -11l-28 -18v-34l-27 21l-31 -10zM312.5 762q94.5 60 205.5 64.5t205 -44.5l30 19q-56 32 -120 46q-85 19 -172 5q-89 -15 -166 -63.5t-128 -123.5
q-50 -71 -69 -157q-14 -63 -10 -128l31 19q-3 108 48 205.5t145.5 157.5zM757.5 58q-94.5 -60 -205.5 -64t-205 44l-30 -19q56 -31 120 -46q85 -19 171 -5q90 15 166.5 64t128.5 123q50 72 69 157q14 64 10 128l-31 -19q3 -108 -48 -205.5t-145.5 -157.5zM404.5 616
q52.5 33 115.5 37l47 30q-97 12 -179.5 -40.5t-113.5 -144.5l48 30q30 55 82.5 88zM665 204.5q-53 -33.5 -115 -37.5l-47 -30q96 -11 179 41t113 144l-47 -30q-30 -54 -83 -87.5zM17 854zM189 253l16 -24q1 -1 2 0l118 76q1 2 0 4l-31 48q-1 1 -3 1l-151 -98q-1 -1 -2 1
l-14 21q-1 2 0 2l183 119q2 0 3 -1l57 -88q7 -14 -6 -24l-136 -88q-2 -1 -1 -3l34 -52q2 -2 4 -1l152 99q1 0 2 -1l16 -24q1 -2 0 -2l-171 -110q-16 -9 -27 5l-77 119q-1 1 1 2l29 19q1 1 2 0zM408 470l27 17q1 1 2 -1l4 -80q0 -2 2 -1l8 5q1 1 2 4l-2 23q0 3 2 3l30 20
q1 0 1 -1l7 -101q0 -2 2 -2l29 19q1 1 3 -1l15 -24q1 -2 0 -3l-68 -44q-1 0 -2 2l-8 13q-2 2 -2 5l-3 55l-2 2l-22 -15q-1 0 -3 1l-18 29q-2 2 -3 6l-2 67q0 1 1 2zM500 522l-3 5q-1 2 0 3l29 18q1 2 3 0l4 -5q1 -2 3 -1l35 23q1 0 3 -1l16 -24q1 -2 0 -3l-36 -23
q-1 -1 -1 -3l17 -25q1 -1 3 0l35 22q2 1 3 0l16 -25q0 -1 -1 -2l-109 -70q-1 -1 -2 1l-15 24q-1 1 0 2l36 24q2 1 1 3l-16 25q-2 2 -4 1l-35 -23q-2 -1 -3 0l-16 25q0 1 1 3l35 23q2 1 1 3zM569 304l-68 -45q-2 0 -3 1l-15 23q-1 1 0 2l69 45q2 1 3 0l16 -24q0 -2 -2 -2z
M677 373l-95 -61q-3 -1 -3 1l-54 84q-1 1 0 3l107 69q1 0 3 -1l45 -70q8 -15 -3 -25zM642 393l-19 29q-1 2 -4 1l-45 -29q-2 -1 -2 -3l22 -34q2 -1 3 0l44 28q4 3 1 8zM750 678l78 50q2 2 4 0l12 -20q1 -2 0 -3l-78 -50q-2 -1 -2 -4l6 -8q1 -1 3 -1l73 48q1 1 3 -1l33 -51
q9 -17 -8 -28l-57 -37q-1 -1 0 -3l47 -73q1 -2 0 -3l-25 -16q-2 -1 -3 1l-47 72q-1 1 -3 0l-72 -46q-2 -1 -3 1l-43 66q-1 2 0 3l73 47q1 1 0 3l-5 8q-1 1 -3 1l-77 -50q-1 -1 -3 0l-13 21q0 1 1 2l77 50q2 1 1 3l-6 9q-1 1 1 2l25 16q1 1 3 0l5 -8q1 -2 3 -1zM771 578
l-11 18q-2 3 -6 1l-39 -25q-3 -3 -2 -6l12 -18q2 -3 6 -1l39 26q3 2 1 5zM780 441l-23 -15q-2 0 -4 2l-13 19q0 2 1 4l10 6q4 5 2 13l-10 40q-1 3 2 4l28 18q2 1 4 -1l13 -59q4 -19 -10 -31zM847 628l-11 17q-2 3 -6 1l-40 -26q-3 -3 -2 -6l12 -17q2 -3 6 -1l40 26q3 2 1 6z
M873 594l37 -24q5 -6 11 -3l6 4q3 1 4 -1l13 -19q0 -2 -2 -4l-23 -14q-13 -6 -26 4l-54 33q-3 4 1 7l28 17q2 2 5 0z" />
    <glyph glyph-name="uniE639" unicode="&#xe639;" 
d="M928 363h-352v352q0 13 -9.5 22.5t-22.5 9.5h-64q-13 0 -22.5 -9.5t-9.5 -22.5v-352h-352q-13 0 -22.5 -9.5t-9.5 -22.5v-64q0 -13 9.5 -22.5t22.5 -9.5h352v-352q0 -13 9.5 -22.5t22.5 -9.5h64q13 0 22.5 9.5t9.5 22.5v352h352q13 0 22.5 9.5t9.5 22.5v64
q0 13 -9.5 22.5t-22.5 9.5z" />
    <glyph glyph-name="uniE63A" unicode="&#xe63a;" 
d="M901 239h-82v83q0 11 -8.5 19t-19.5 8t-19 -8t-8 -19v-83h-83q-11 0 -19 -8t-8 -19t8 -19.5t19 -8.5h83v-82q0 -11 8 -19t19 -8t19.5 8t8.5 19v82h82q11 0 19 8.5t8 19.5t-8 19t-19 8zM764 20h-572q-7 0 -11 5q-4 4 -3 10q20 107 105 176.5t195 69.5h1h2q111 2 190 82
t79 192q0 114 -80.5 194.5t-194.5 80.5t-194.5 -80.5t-80.5 -194.5q0 -69 32 -128.5t87 -97.5q-85 -38 -144.5 -111.5t-77.5 -167.5q-8 -43 20 -78q29 -35 75 -35h572q17 0 29 12t12 29t-12 29.5t-29 12.5zM475.5 748q79.5 0 135.5 -56.5t56 -136t-56 -136t-135.5 -56.5
t-136 56.5t-56.5 136t56.5 136t136 56.5z" />
    <glyph glyph-name="uniE63B" unicode="&#xe63b;" 
d="M752 -62q10 0 17 8t7 19v9h1v18q0 119 -61 216.5t-163 141.5l-16 7l14 9q49 36 76.5 92t27.5 119q0 105 -68.5 179.5t-165.5 74.5t-166 -74.5t-69 -179.5q0 -63 28 -119t77 -92l13 -9l-15 -7q-102 -44 -163.5 -141.5t-61.5 -216.5q0 -8 1 -18l1 -10q0 -11 7 -19t17 -8
q7 0 331 0.5t331 0.5zM692 334q95 -12 156 -90q62 -78 62 -186q0 -11 7 -19t18 -8q10 0 17 7.5t8 18.5v1v1q0 99 -51 180t-136 117l-16 7l14 10q41 29 64 75.5t23 99.5q0 73 -41.5 130t-107.5 74h-3h-1h-1q-10 0 -17.5 -8t-7.5 -20q0 -10 6 -18t16 -10h1h1q2 -1 5 -2h1
q43 -16 69.5 -56t26.5 -88q0 -55 -32 -97t-82 -53h-1h-2q-12 -1 -20 -10.5t-8 -22.5t8 -22.5t20 -10.5h3h1zM692 334z" />
    <glyph glyph-name="uniE63C" unicode="&#xe63c;" 
d="M957 568q-1 12 -9.5 19.5t-20.5 7.5h-94q-7 18 -23 29.5t-37 11.5h-523q-20 0 -36 -11.5t-23 -29.5h-95q-11 0 -19.5 -7.5t-10.5 -19.5q-9 -98 13 -162q11 -36 49 -77.5t93 -75.5q3 -2 53 -32q15 -10 30 -19q39 -23 64 -34q31 -47 62 -85l2 -3q4 -8 12 -14l1 -1h-157
q-26 0 -43.5 -18t-17.5 -43v0v-1v-60h570v60v1v0q0 25 -17.5 43t-43.5 18h-158q10 6 15 15l3 6q30 37 60 82q25 11 64 34q15 9 30 19q49 30 53 32q55 34 93 75.5t49 77.5q22 64 12 162zM291 290q-8 5 -17 11q-29 18 -31 19q-33 20 -55 44.5t-29 45.5q-13 38 -7 95
q0 7 5.5 11.5t11.5 4.5h35l1 -2q15 -90 91 -231q-2 1 -5 2zM865 410q-7 -21 -29 -45.5t-55 -44.5q-2 -1 -31 -19q-9 -6 -18 -11q-1 -1 -3 -2q77 143 92 233h33q7 0 12 -4.5t6 -11.5q6 -57 -7 -95z" />
    <glyph glyph-name="uniE63D" unicode="&#xe63d;" 
d="M741 415zM522 616q-4 4 -10 4t-10 -4l-204 -192q-2 -2 -1 -5t4 -3h132v-195q0 -6 4.5 -10.5t10.5 -4.5h128q6 0 10.5 4.5t4.5 10.5v195h132q3 0 4 3t-1 5zM900 145l-126 88h-79l132 -107l-145 2q-8 0 -12 -8l-40 -97h-236l-40 97q-4 8 -12 8h-144l131 105h-79l-126 -88
q-15 -9 -22.5 -26.5t-3.5 -33.5l23 -128q4 -16 19.5 -27.5t32.5 -11.5h678q17 0 32.5 11.5t19.5 27.5l23 128q4 16 -3.5 33.5t-22.5 26.5zM900 145z" />
    <glyph glyph-name="uniE63E" unicode="&#xe63e;" 
d="M854 199v-45q-1 -5 -2 -6q-13 -68 -14 -71q-29 -99 -112 -169q-64 -56 -140 -74q-3 0 -53 -9h-45l-6 1q-71 5 -134 37q-125 64 -162 186q0 2 -11 57v42q4 30 5 32q11 62 55 123q4 5 33 44.5t43 60.5q42 62 32 130q-1 5 -2.5 14.5t-2.5 13.5h2q1 0 1 1q74 -77 59 -216
q5 5 6 5q77 105 54 223q-16 82 -69 138q-7 8 -15.5 15.5t-20 17t-17.5 13.5h19h1q2 -1 3 -2q44 -3 91 -26q92 -45 163 -136q105 -135 117 -285q4 -61 -12 -121q-1 -2 -16 -45q31 13 50 41q52 75 39 179l5 -6q36 -56 48 -114zM504 277l-2 -1q-3 -44 -4 -49q-4 -40 -20 -71
q-17 -34 -64 -58q-45 -23 -48 -68q-4 -54 35 -83q35 -27 87 -25q81 2 103 76q15 48 2 110q-16 81 -59 138q-1 1 -30 31z" />
    <glyph glyph-name="uniE63F" unicode="&#xe63f;" 
d="M708 419v319q-6 3 -18 8.5t-49 16t-75 15.5t-93 1t-107 -22zM738 231v494q8 -4 20.5 -11t47.5 -32t64.5 -55.5t60.5 -81t46 -107.5zM638 88l344 320q2 -4 5.5 -12t9.5 -37t5.5 -62.5t-13 -90t-37.5 -118.5h-314zM462 47h465q-2 -6 -7 -16.5t-25.5 -40t-47 -55t-74 -54.5
t-103.5 -47zM310 149v-300q5 -3 14.5 -8t41.5 -15.5t67.5 -15.5t91 -3t113.5 17zM41 133l236 209v-475q-6 2 -16 6.5t-39.5 24.5t-57 47t-62.5 77t-61 111zM35 166q-2 7 -5 19.5t-8.5 50.5t-5.5 74.5t10 86t31 91.5h324zM77 521q3 7 8.5 17.5t27.5 41t48.5 57t72 58
t97.5 51.5l221 -225h-475z" />
    <glyph glyph-name="uniE640" unicode="&#xe640;" 
d="M951.5 704.5q-4.5 3.5 -9.5 0.5l-868 -444q-5 -2 -4.5 -8t5.5 -8l291 -92q5 -2 9 2l401 362l-320 -380q-4 -4 -2.5 -8.5t6.5 -5.5l322 -99h3q2 0 4 1q3 2 4 6l161 664q2 6 -2.5 9.5zM554 52l-89 27q-4 2 -8 -1t-4 -7v-168q0 -7 7 -9h2q5 0 8 4l89 141q2 3 0.5 7.5
t-5.5 5.5z" />
    <glyph glyph-name="uniE641" unicode="&#xe641;" 
d="M710 742q-97 60 -210 64t-212.5 -48.5t-159.5 -149.5q-60 -98 -63.5 -210.5t48.5 -212.5t149 -159q98 -60 211 -64t212.5 48.5t159.5 149.5q60 98 63.5 210.5t-48.5 212.5t-150 159zM179 576q38 59 95 99t121 56.5t133.5 10t130.5 -37.5l-384 -608q-72 54 -111 136
t-35.5 173.5t50.5 170.5zM794 192q-77 -115 -209 -153.5t-252 19.5l377 608q106 -87 130.5 -222.5t-46.5 -251.5z" />
    <glyph glyph-name="uniE642" unicode="&#xe642;" 
d="M659 333l-237 141q-4 4 -12 4t-13 -4q-13 -13 -13 -26v-275q0 -13 13 -26q3 0 6 -3t7 -3q6 0 12 6l237 141q13 13 13 26q0 6 -13 19zM435 218v185l160 -96zM448 678l-77 103q-5 5 -13 5t-12 -5q-18 -9 -7 -32l64 -90h-128q-62 5 -107.5 -40.5t-45.5 -112.5v-397
q0 -66 45 -110t108 -44h499q67 0 110.5 45t43.5 109v397q5 66 -39.5 113t-107.5 47h-141l64 89q12 23 -6 32q-23 12 -32 -6l-71 -109q0 -3 -3 -6.5t-3 -6.5h-128zM883 109q0 -48 -29.5 -78.5t-72.5 -30.5h-506q-47 0 -78 32t-31 77v397q0 47 32.5 77.5t76.5 30.5h499
q47 0 78 -32t31 -76v-397z" />
    <glyph glyph-name="uniE643" unicode="&#xe643;" 
d="M762 768h-500q-67 0 -113.5 -46.5t-46.5 -113.5v-326q0 -67 45 -110.5t109 -43.5h96l243 -109q39 -19 64 -19q32 0 45 6q45 19 77 71l25 51q50 15 83 56.5t33 97.5v326q0 67 -46.5 113.5t-113.5 46.5zM742 96q-8 -13 -13 -19.5t-15.5 -14.5t-22.5 -11q-35 -9 -70 0
l-154 71h288zM877 282q0 -47 -35.5 -81.5t-79.5 -34.5h-500q-47 0 -77.5 32.5t-30.5 76.5v333q0 47 32 78t76 31h500q47 0 77.5 -32.5t30.5 -76.5zM614 544l-32 32l-70 -77l-70 77l-32 -32l57 -51h-57v-39h83v-44h-83v-39h83v-89h38v89h83v39h-83v44h83v39h-57z" />
    <glyph glyph-name="uniE644" unicode="&#xe644;" 
d="M707 812l-357 -366v366h-268v-91h89v-733l804 824h-268z" />
    <glyph glyph-name="uniE645" unicode="&#xe645;" 
d="M510.5 -64q-90.5 0 -173.5 35q-81 34 -142.5 95.5t-95.5 141.5q-35 83 -35 174t35 174q34 80 95.5 142t142.5 96q83 35 173.5 35t173.5 -35q80 -34 142 -96t96 -142q35 -83 35 -174t-35 -174q-34 -80 -96 -141.5t-142 -95.5q-83 -35 -173.5 -35zM510.5 766
q-76.5 0 -146.5 -29t-124.5 -83.5t-83.5 -124.5t-29 -146.5t29 -146.5t83.5 -124.5t124.5 -83.5t146.5 -29t146.5 29t124.5 83.5t83.5 124.5t29 146.5t-29 146.5t-83.5 124.5t-124.5 83.5t-146.5 29zM349 542h323v-320h-323v320z" />
    <glyph glyph-name="uniE646" unicode="&#xe646;" horiz-adv-x="1078" 
d="M1026 421l-187 -159q-18 -18 -14 -44l44 -257q5 -31 -17 -47q-14 -10 -31 -10q-14 0 -26 6l-235 127q-23 12 -46 0l-225 -127q-30 -15 -58 4q-30 23 -26 47l54 262q4 26 -14 44l-197 154q-24 24 -13.5 56t43.5 37l256 45q25 3 37 27l118 248q14 30 48 30t49 -30l113 -248
q11 -24 37 -27l260 -45q33 -5 43.5 -37t-13.5 -56z" />
    <glyph glyph-name="uniE647" unicode="&#xe647;" 
d="M884 533l-14 19q-14 20 -17 44l-2 24q-2 23 -16.5 44t-35.5 31l-22 11q-8 4 -18.5 13.5t-15.5 17.5l-14 20q-12 19 -35 31t-45 12l-25 -1q-24 -1 -45 11l-21 12q-20 11 -46 11t-45 -11l-22 -12q-21 -12 -45 -11l-24 1q-23 0 -46 -12t-35 -31l-13 -20q-5 -8 -16 -17.5
t-19 -13.5l-22 -11q-20 -10 -35 -31t-17 -44l-2 -24q-2 -24 -16 -44l-15 -19q-13 -18 -16 -44t5 -47l10 -22q9 -22 5 -46l-3 -24q-4 -23 5.5 -47t26.5 -39l19 -15q18 -16 26 -39l8 -23q2 -6 5 -12l-86 -148h125l61 -92l76 130q31 -11 59 -3l23 6q23 7 47 0l23 -6q26 -8 56 2
l76 -129l60 92h126l-85 145q4 8 7 15l8 23q7 23 26 39l19 15q17 15 26 39t6 47l-4 24q-3 24 6 46l9 22q9 21 6 47t-17 44zM512.5 124q-131.5 0 -224.5 93t-93 224.5t93 224.5t224.5 93t224.5 -93t93 -224.5t-93 -224.5t-224.5 -93zM512.5 726q-117.5 0 -201 -83.5
t-83.5 -201t83.5 -200.5t201 -83t200.5 83t83 200.5t-83 201t-200.5 83.5zM614 302l-97 52l-99 -50l19 109l-78 79l110 15l50 99l49 -100l109 -17l-80 -77z" />
    <glyph glyph-name="uniE648" unicode="&#xe648;" 
d="M507 834q-121 0 -223.5 -58t-162 -158t-59.5 -218t59.5 -218t162 -158t223.5 -58t223.5 58t162 158t59.5 218t-59.5 218t-162 158t-223.5 58zM507 28q-103 0 -191 50t-139 135.5t-51 186.5t51 186.5t139 135.5t191 50t191 -50t139 -135.5t51 -186.5t-51 -186.5
t-139 -135.5t-191 -50zM426 201q-4 0 -7 1q-9 5 -9 14v354q0 10 8.5 14t16.5 -1l254 -172q7 -5 7 -13t-7 -13l-254 -181q-4 -3 -9 -3z" />
    <glyph glyph-name="uniE649" unicode="&#xe649;" 
d="M71 519q0 10 7.5 17.5t18.5 7.5h28q11 0 18.5 -7.5t7.5 -17.5v-270q0 -10 -7.5 -17.5t-18.5 -7.5h-28q-11 0 -18.5 7.5t-7.5 17.5v270zM271 679q0 10 8 18t18 8h29q11 0 18.5 -8t7.5 -18v-590q0 -10 -8 -18t-18 -8h-29q-10 0 -18 8t-8 18v590zM873 519q0 10 7.5 17.5
t18.5 7.5h28q11 0 18.5 -7.5t7.5 -17.5v-270q0 -10 -7.5 -17.5t-18.5 -7.5h-28q-11 0 -18.5 7.5t-7.5 17.5v270zM672 679q0 10 8 18t18 8h29q10 0 18 -8t8 -18v-590q0 -10 -8 -18t-18 -8h-29q-11 0 -18.5 8t-7.5 18v590zM472 799q0 11 7.5 18.5t18.5 7.5h28q11 0 18.5 -7.5
t7.5 -18.5v-830q0 -11 -7.5 -18.5t-18.5 -7.5h-28q-11 0 -18.5 7.5t-7.5 18.5v830z" />
    <glyph glyph-name="uniE64A" unicode="&#xe64a;" 
d="M512 -58q-99 0 -188 41.5t-152 117.5q-11 14 1 25l79 79q6 6 14 6q9 -1 13 -7q43 -55 103.5 -85t129.5 -30q122 0 208.5 86.5t86.5 208.5t-86.5 208.5t-208.5 86.5q-116 0 -200 -79l78 -79q18 -17 9 -40q-10 -23 -34 -23h-258q-16 0 -26.5 10.5t-10.5 26.5v258
q0 24 23 34q22 10 39 -8l75 -75q62 58 141.5 90t163.5 32q90 0 172 -35t141 -94t94 -141t35 -172t-35 -172t-94 -141t-141 -94t-172 -35z" />
    <glyph glyph-name="uniE64B" unicode="&#xe64b;" 
d="M461 -146q-43 0 -58 20t-15 63v63q-1 42 -1 91q-1 48 -2 93.5t-1 72.5q0 38 -7.5 60t-34.5 21q-19 0 -46.5 1t-48.5 0q-35 0 -44 19t13 49q24 29 56 70t65.5 83.5t66 84t57.5 73.5q22 29 43.5 30t45.5 -26q24 -29 55 -67.5t65 -79.5l66 -82q33 -40 59 -71
q29 -34 22.5 -56.5t-42.5 -22.5q-11 0 -24.5 -0.5t-27.5 -0.5q-16 -1 -30 -1q-14 -1 -26 -1q-25 -1 -31.5 -16t-5.5 -41q0 -28 0.5 -75t1 -97.5t1.5 -98t1 -77.5q0 -13 -2 -27t-9.5 -25t-20.5 -19t-35 -8q-27 0 -51 -1q-25 0 -55 -1z" />
    <glyph glyph-name="uniE64C" unicode="&#xe64c;" 
d="M329 206l355 -363l101 103l-355 363l338 346l-98 99l-338 -345l-101 -103v0z" />
    <glyph glyph-name="uniE64D" unicode="&#xe64d;" 
d="M287 -45l106 -110l460 455l-467 457l-113 -112l367 -340z" />
    <glyph glyph-name="uniE64E" unicode="&#xe64e;" horiz-adv-x="1025" 
d="M512 812q-104 0 -199 -35.5t-163.5 -95t-109 -142t-40.5 -173.5q0 -89 38.5 -169.5t107.5 -142.5q24 -21 115.5 -87.5t171.5 -122.5l79 -56v132q104 0 199 35.5t163.5 95t109 142t40.5 173.5t-40.5 173.5t-109 142t-163.5 95t-199 35.5zM259 298q-28 0 -48 19t-20 46.5
t20 47t48 19.5t48 -19.5t20 -47t-20 -46.5t-48 -19zM514 298q-28 0 -48 19t-20 46.5t20 47t48 19.5t48 -19.5t20 -47t-20 -46.5t-48 -19zM771 298q-28 0 -48 19t-20 46.5t20 47t48 19.5t48 -19.5t20 -47t-20 -46.5t-48 -19z" />
    <glyph glyph-name="uniE64F" unicode="&#xe64f;" 
d="M891 64h-508q-14 0 -24 -10t-10 -24.5t10 -24.5t24 -10h508q14 0 24.5 10t10.5 24.5t-10.5 24.5t-24.5 10zM891 334h-508q-14 0 -24 -10t-10 -24.5t10 -24.5t24 -10h508q14 0 24.5 10t10.5 24.5t-10.5 24.5t-24.5 10zM383 535h508q14 0 24.5 10t10.5 24.5t-10.5 25
t-24.5 10.5h-508q-14 0 -24 -10.5t-10 -25t10 -24.5t24 -10zM220 648h-86q-15 0 -25 -10t-10 -25v-86q0 -15 10 -25t25 -10h86q14 0 24.5 10t10.5 25v86q0 15 -10.5 25t-24.5 10zM220 378h-86q-15 0 -25 -10.5t-10 -24.5v-87q0 -14 10 -24t25 -10h86q14 0 24.5 10t10.5 24
v87q0 14 -10.5 24.5t-24.5 10.5zM220 107h-86q-15 0 -25 -10t-10 -24v-87q0 -14 10 -24.5t25 -10.5h86q14 0 24.5 10.5t10.5 24.5v87q0 14 -10.5 24t-24.5 10z" />
    <glyph glyph-name="uniE650" unicode="&#xe650;" 
d="M705 748q-57 0 -108 -27.5t-87 -75.5q-35 48 -86.5 75.5t-108.5 27.5q-104 0 -178 -81t-74 -194q0 -42 13 -84t25.5 -64t34.5 -57q27 -41 72 -91.5t85.5 -89t87.5 -79t66 -55.5t31 -25q14 -11 32 -11t32 11q12 10 31 25t66 55t87.5 79t85.5 89.5t72 91.5q22 35 34.5 57
t25.5 64t13 84q0 113 -74 194t-178 81zM838 303q-25 -39 -68 -87t-86.5 -88.5t-83.5 -75t-65 -54.5l-25 -20q-10 8 -26.5 21t-62.5 52.5t-85.5 77t-84 86.5t-69.5 88q-21 33 -32 53.5t-21 52.5t-10 64q0 88 57.5 150.5t138.5 62.5q59 0 107 -35t71 -92v1q4 -14 17 -14t17 14
q23 56 71.5 91t106.5 35q81 0 138.5 -62.5t57.5 -150.5q0 -46 -16 -83.5t-47 -86.5zM838 303z" />
    <glyph glyph-name="uniE651" unicode="&#xe651;" 
d="M696 548h-368q-25 0 -48 9q-22 10 -39 27t-27 39q-9 23 -9 48q0 16 6 32q6 14 17.5 25.5t26.5 17.5q15 7 32 7h450q17 0 32 -7q15 -6 26.5 -17.5t17.5 -25.5q6 -16 6 -32q0 -25 -9 -48q-10 -22 -27 -39t-39 -27q-23 -9 -48 -9zM287 712q-17 0 -29 -12t-12 -29
q0 -34 24 -58t58 -24h368q34 0 58 24t24 58q0 17 -12 29t-29 12h-450zM737 15h-450q-17 0 -32 7q-15 6 -26.5 17.5t-17.5 25.5q-6 16 -6 32v574q0 16 6 32q6 14 17.5 25.5t26.5 17.5q15 7 32 7h450q17 0 32 -7q15 -6 26.5 -17.5t17.5 -25.5q6 -16 6 -32v-574q0 -16 -6 -32
q-6 -14 -17.5 -25.5t-26.5 -17.5q-15 -7 -32 -7zM287 712q-17 0 -29 -12t-12 -29v-574q0 -17 12 -29t29 -12h450q17 0 29 12t12 29v574q0 17 -12 29t-29 12h-450zM616 456l-74 -89h80v-20h-95v-51h95v-20h-95v-67h-34v67h-94v20h94v51h-94v20h80l-74 89h38l67 -86l67 86h39z
M530 207h-39v66h-95v26h95v45h-95v26h78l-74 89h45l65 -85l66 85h45l-74 -89h78v-26h-95v-45h95v-26h-95v-66zM496 212h29v66h95v16h-95v55h95v16h-84l74 89h-31l-69 -88l-68 88h-32l74 -89h-83v-16h95v-55h-95v-16h95v-66z" />
    <glyph glyph-name="uniE652" unicode="&#xe652;" 
d="M592 -123l-537 506l536 508l34 -35l-500 -473l499 -471z" />
    <glyph glyph-name="uniE653" unicode="&#xe653;" 
d="M432 891l537 -506l-536 -508l-34 35l500 473l-499 471z" />
    <glyph glyph-name="uniE654" unicode="&#xe654;" 
d="M512.5 831q-90.5 0 -173 -35t-142 -95t-95 -142.5t-35.5 -173t35.5 -173t95 -142t142 -95t173 -35.5t173 35.5t142.5 95t95 142t35 173t-35 173t-95 142.5t-142.5 95t-173 35zM513 -12q-108 0 -200 53.5t-145 145t-53 199.5t53 199.5t145 145t200 53.5t199.5 -53.5
t144.5 -145t53 -199.5t-53 -199.5t-144.5 -145t-199.5 -53.5zM620 619l-70 -130q-28 -53 -35 -71h-1q-19 42 -106 201h-66l124 -213h-102v-47h119v-64h-119v-48h119v-94h59v94h115v48h-115v64h115v47h-99l125 213h-63z" />
    <glyph glyph-name="uniE655" unicode="&#xe655;" 
d="M512 715q-116 0 -214 -57.5t-155.5 -155.5t-57.5 -214t57.5 -214t155.5 -155.5t214 -57.5t214 57.5t155.5 155.5t57.5 214t-57.5 214t-155.5 155.5t-214 57.5zM467 137l-30 -30l-181 181l30 30l151 -151l301 302l30 -30z" />
    <glyph glyph-name="uniE656" unicode="&#xe656;" 
d="M512 715q-116 0 -214 -57.5t-155.5 -155.5t-57.5 -214t57.5 -214t155.5 -155.5t214 -57.5t214 57.5t155.5 155.5t57.5 214t-57.5 214t-155.5 155.5t-214 57.5zM512 -96q-159 0 -271.5 112.5t-112.5 271.5t112.5 271.5t271.5 112.5t271.5 -112.5t112.5 -271.5
t-112.5 -271.5t-271.5 -112.5z" />
    <glyph glyph-name="uniE657" unicode="&#xe657;" 
d="M623 641v-131h-490v131h490zM676 694h-596v-236h596v236zM889 457v-131h-490v131h490zM942 509h-596v-235h596v235zM623 274v-131h-490v131h490zM676 326h-596v-235h596v235zM889 90v-131h-490v131h490zM942 142h-596v-236h596v236z" />
    <glyph glyph-name="uniE658" unicode="&#xe658;" 
d="M832 488q1 -17 1 -19q0 -17 -3 -40q46 -53 46 -120q0 -52 -29 -97t-78 -72v-76l-32 21l-41 28q-29 -6 -56 -6q-82 0 -146 44q-19 -2 -35 -2q-7 0 -26 1q39 -38 93 -59.5t114 -21.5q26 0 52 5l120 -74v121q49 34 78 84t29 107q0 104 -87 176zM619 427q18 0 30.5 12.5
t12.5 30t-12.5 30t-30.5 12.5t-30.5 -12.5t-12.5 -30t12.5 -30t30.5 -12.5zM276.5 512q-17.5 0 -30 -12.5t-12.5 -30t12.5 -30t30 -12.5t30 12.5t12.5 30t-12.5 30t-30 12.5zM790 469q0 81 -45.5 150t-124.5 109t-172 40t-172 -40t-125 -109t-46 -150q0 -69 34.5 -130
t94.5 -103v-151l150 91q32 -5 64 -5q93 0 172 40t124.5 108.5t45.5 149.5zM381 227l-94 -57l1 94q-54 33 -86 85.5t-32 112.5q0 100 81.5 171t196.5 71t196.5 -71t81.5 -171t-81.5 -171t-196.5 -71q-33 0 -67 7zM491 469.5q0 17.5 -12.5 30t-30.5 12.5t-30.5 -12.5
t-12.5 -30t12.5 -30t30.5 -12.5t30.5 12.5t12.5 30z" />
    <glyph glyph-name="uniE659" unicode="&#xe659;" 
d="M511 138q12 0 20.5 13t8.5 31v66h128q12 0 20.5 8.5t8.5 20.5t-8.5 20.5t-20.5 8.5h-128v68h112q19 0 32 8.5t13 20.5t-13 20t-32 8h-84l106 127q16 18 14 37q-1 10 -7 16q-5 4 -13 4q-22 0 -38 -20l-115 -137l-115 137q-17 20 -38 20q-8 0 -13 -4q-7 -6 -7 -16
q-2 -19 13 -37l107 -127h-93q-19 0 -32 -8t-13 -20t13 -20.5t32 -8.5h113v-68h-129q-12 0 -20.5 -8.5t-8.5 -20.5t8.5 -20.5t20.5 -8.5h129v-66q0 -18 8.5 -31t20.5 -13zM962 575q-37 88 -105 156t-156 105q-91 39 -190.5 39t-190.5 -39q-88 -37 -156 -105t-105 -156
q-38 -91 -38 -190.5t38 -190.5q37 -88 105 -156t156 -105q91 -38 190.5 -38t190.5 38q88 37 156 105t105 156q39 91 39 190.5t-39 190.5zM510.5 -53q-88.5 0 -169.5 35t-139.5 93.5t-93.5 139.5t-35 169.5t35 169.5t93.5 139.5t139.5 93.5t169.5 35t169.5 -35t139.5 -93.5
t93.5 -139.5t35 -169.5t-35 -169.5t-93.5 -139.5t-139.5 -93.5t-169.5 -35z" />
  </font>
</defs>
</svg>
